<svg xmlns="http://www.w3.org/2000/svg">
    <symbol id="arrow" width="32" height="12" viewBox="0 0 32 12">
      <path fill="currentColor" stroke="#000" stroke-width="2" d="M0 6h18" />
      <path d="m24 6-6.75 5.2V.8L24 6Z" fill="#000" />
    </symbol>
    <symbol id="email" width="18" height="14" viewBox="0 0 18 14">
    <path stroke="#000" stroke-linecap="round" stroke-linejoin="round" d="M.5 5.5v8h17v-8M.5.5h17v2L9 8.5l-8.5-6v-2Z"/>
    </symbol>
    <symbol id="phone" width="16" height="16" viewBox="0 0 16 16">
    <path stroke="#000" stroke-linecap="round" stroke-linejoin="round" d="M7 8h8.5m0 0L13 5.5M15.5 8 13 10.5M5.5.5v5h-3v5h3v5H3c-1.5 0-2.5-1-2.5-2.5V3C.5 1.5 1.5.5 3 .5h2.5Z"/>
    </symbol>
</svg>
