<svg xmlns="http://www.w3.org/2000/svg">
    <symbol id="arrow" width="32" height="12" viewBox="0 0 32 12">
      <path fill="currentColor" stroke="#000" stroke-width="2" d="M0 6h18" />
      <path d="m24 6-6.75 5.2V.8L24 6Z" fill="#000" />
    </symbol>

    <symbol id="email" width="18" height="14" viewBox="0 0 18 14">
      <path stroke="#000" stroke-linecap="round" stroke-linejoin="round" d="M.5 5.5v8h17v-8M.5.5h17v2L9 8.5l-8.5-6v-2Z"/>
    </symbol>

    <symbol id="phone" width="16" height="16" viewBox="0 0 16 16">
      <path stroke="#000" stroke-linecap="round" stroke-linejoin="round" d="M7 8h8.5m0 0L13 5.5M15.5 8 13 10.5M5.5.5v5h-3v5h3v5H3c-1.5 0-2.5-1-2.5-2.5V3C.5 1.5 1.5.5 3 .5h2.5Z"/>
    </symbol>

    <symbol id="icon-vk" width="16" height="16" viewBox="0 0 27 17" fill="none">
      <path d="m0 2 2-1h4l1 4a40 40 0 0 0 3 3V3L9 2c0-1 1-2 3-2h3l1 2v6l1-1a18 18 0 0 0 3-5l1-1h6v2l-1 2-2 2a28 28 0 0 0-2 3h1l3 5 1 1-1 1h-7a241 241 0 0 1-3-3v2l-1 1h-3l-5-2-4-5a48 48 0 0 1-3-8Zm16 7h-1V2l-1-1h-4l1 2v6h-1L8 8 5 3V2H1v1l1 1c1 4 3 7 5 9 1 2 3 3 5 3h3v-3l1-1 2 1 2 3h6v-1l-4-4-1-1 1-2 1-1 2-2 1-2V2h-4l-1 1-4 5-1 1Z" fill="#666" />
    </symbol>

    <symbol id="icon-youtube" width="24" height="19" viewBox="0 0 24 19" fill="none">
      <path d="m16 9-5-4a1 1 0 0 0-1 1v7a1 1 0 0 0 1 0l5-3a1 1 0 0 0 0-1Zm-5 3V7l3 2-3 3Zm12-9a2 2 0 0 0-1-2L12 0 2 1a2 2 0 0 0-1 2L0 9l1 7a2 2 0 0 0 1 1c4 2 10 2 10 2 1 0 6 0 10-2a2 2 0 0 0 1-1l1-7-1-6Zm-1 12a1 1 0 0 1-1 1l-9 1-9-1a1 1 0 0 1-1-1L1 9l1-6a1 1 0 0 1 1 0c3-2 9-2 9-2s6 0 9 2a1 1 0 0 1 1 0l1 6-1 6Z" fill="#666" />
    </symbol>

    <symbol id="icon-telegram" width="20" height="18" viewBox="0 0 20 18" fill="none">
      <path fill-rule="evenodd" clip-rule="evenodd" d="m19 0 1 1-3 16a1 1 0 0 1-1 0l-8-5a1 1 0 0 1 0-1l3-4-5 3c0 1 0 1 0 0L0 8a1 1 0 0 1 0-1l19-7ZM2 7l4 2 7-5a1 1 0 0 1 1 1l-5 6 7 4 2-13L2 7Z" fill="#666" />
    </symbol>

    <symbol id="icon-logo" width="27" height="34" viewBox="0 0 27 34" fill="none">
      <path d="M13.64.02 13.5 0 0 1.4v24.61L13.5 34 27 26.01V1.41L13.64 0Zm11.6 25L13.5 31.96 1.77 25.02v-10.1l11.68 6.93.02 1.25-8.02-4.75v1.23l8.04 4.8.02 1.3-8.05-4.76v1.22l8.04 4.81 8.12-4.83V16.9l3.62-2.15v10.26Zm0-11.57L22 15.33l-1.48.88-7.06-4.19-.01 1.23 6.04 3.57-.06.03-.13.07-.86.5-4.98-2.95-.01 1.22 3.93 2.33-.93.61-.02.01-2.97-1.74-.01 1.23 1.94 1.13-1.98 1.19L1.8 13.58l11.63-6.96 11.8 6.83Zm0-1.22L13.43 5.3 1.77 12.22V2.99L13.5 1.76 25.23 3v9.24Z" fill="#666" />
      </symbol>
</svg>
